<?xml version="1.0" standalone="no"?>
<!DOCTYPE svg PUBLIC "-//W3C//DTD SVG 20010904//EN"
 "http://www.w3.org/TR/2001/REC-SVG-20010904/DTD/svg10.dtd">
<svg version="1.0" xmlns="http://www.w3.org/2000/svg"
 width="1000.000000pt" height="1000.000000pt" viewBox="0 0 1000.000000 1000.000000"
 preserveAspectRatio="xMidYMid meet">

<g transform="translate(0.000000,1000.000000) scale(0.100000,-0.100000)"
fill="#000000" stroke="none">
<path d="M6820 8390 c0 -6 -37 -10 -90 -10 -53 0 -90 -4 -90 -10 0 -6 -37 -10
-90 -10 -53 0 -90 -4 -90 -10 0 -6 -37 -10 -90 -10 -53 0 -90 -4 -90 -10 0 -6
-40 -10 -100 -10 -60 0 -100 -4 -100 -10 0 -6 -37 -10 -90 -10 -53 0 -90 -4
-90 -10 0 -6 -43 -10 -110 -10 -67 0 -110 -4 -110 -10 0 -6 -50 -10 -130 -10
-80 0 -130 -4 -130 -10 0 -5 -22 -10 -50 -10 -27 0 -50 -4 -50 -10 0 -5 -22
-10 -50 -10 -27 0 -50 -4 -50 -10 0 -6 -37 -10 -90 -10 -53 0 -90 -4 -90 -10
0 -6 -27 -10 -60 -10 -33 0 -60 -4 -60 -10 0 -5 -13 -10 -30 -10 -16 0 -30 -4
-30 -10 0 -5 -7 -10 -16 -10 -20 0 -44 -24 -44 -44 0 -9 -4 -16 -10 -16 -5 0
-10 5 -10 10 0 6 -9 10 -20 10 -11 0 -20 5 -20 10 0 6 -9 10 -20 10 -11 0 -20
5 -20 10 0 6 -43 10 -110 10 -67 0 -110 -4 -110 -10 0 -6 -53 -10 -140 -10
-87 0 -140 -4 -140 -10 0 -6 -29 -10 -66 -10 -63 0 -67 -1 -104 -40 -43 -45
-59 -49 -80 -20 -8 11 -22 20 -32 20 -10 0 -18 5 -18 10 0 6 -9 10 -20 10 -11
0 -20 5 -20 10 0 6 -13 10 -30 10 -16 0 -30 5 -30 10 0 6 -37 10 -90 10 -53 0
-90 4 -90 10 0 6 -57 10 -150 10 -93 0 -150 -4 -150 -10 0 -6 -43 -10 -110
-10 -67 0 -110 -4 -110 -10 0 -6 -27 -10 -60 -10 -33 0 -60 -4 -60 -10 0 -5
-18 -10 -40 -10 -22 0 -40 -4 -40 -10 0 -5 -18 -10 -40 -10 -22 0 -40 -4 -40
-10 0 -5 -13 -10 -30 -10 -16 0 -30 -4 -30 -10 0 -5 -9 -10 -20 -10 -11 0 -20
-4 -20 -10 0 -5 -9 -10 -20 -10 -11 0 -20 -4 -20 -10 0 -5 -13 -10 -28 -10
-16 0 -34 -8 -42 -20 -8 -11 -22 -20 -32 -20 -10 0 -18 -4 -18 -10 0 -5 -7
-10 -15 -10 -19 0 -165 -144 -165 -163 0 -7 -9 -19 -20 -27 -11 -8 -20 -22
-20 -32 0 -10 -4 -18 -10 -18 -5 0 -10 -13 -10 -30 0 -16 -4 -30 -10 -30 -6 0
-10 -30 -10 -70 0 -40 -4 -70 -10 -70 -7 0 -10 -333 -10 -980 0 -647 3 -980
10 -980 6 0 10 -37 10 -90 0 -53 4 -90 10 -90 6 0 10 -18 10 -40 0 -22 5 -40
10 -40 6 0 10 -9 10 -20 0 -11 5 -20 10 -20 6 0 10 -9 10 -20 0 -11 5 -20 10
-20 6 0 10 -8 10 -18 0 -10 9 -24 20 -32 11 -8 20 -20 20 -28 0 -16 45 -62 61
-62 6 0 24 -13 39 -30 15 -16 34 -30 42 -30 7 0 20 -9 28 -20 8 -11 22 -20 32
-20 10 0 18 -4 18 -10 0 -5 8 -10 18 -10 10 0 24 -9 32 -20 8 -11 21 -20 30
-20 9 0 22 -9 30 -20 8 -11 21 -20 30 -20 9 0 22 -9 30 -20 8 -11 22 -20 32
-20 10 0 18 -4 18 -10 0 -5 8 -10 18 -10 10 0 24 -9 32 -20 8 -11 21 -20 30
-20 9 0 22 -9 30 -20 8 -11 21 -20 30 -20 9 0 22 -9 30 -20 8 -11 21 -20 30
-20 9 0 22 -9 30 -20 8 -11 22 -20 32 -20 10 0 18 -4 18 -10 0 -5 9 -10 20
-10 11 0 20 -4 20 -10 0 -5 9 -10 20 -10 11 0 20 -4 20 -10 0 -5 18 -10 40
-10 22 0 40 -4 40 -10 0 -6 37 -10 90 -10 53 0 90 -4 90 -10 0 -6 27 -10 60
-10 33 0 60 4 60 10 0 6 43 10 110 10 67 0 110 4 110 10 0 6 23 10 50 10 28 0
50 5 50 10 0 6 14 10 30 10 17 0 30 5 30 10 0 6 14 10 30 10 17 0 30 5 30 10
0 6 14 10 30 10 l30 0 0 -60 c0 -33 4 -60 10 -60 6 0 10 -9 10 -20 0 -16 -7
-20 -30 -20 -16 0 -30 -4 -30 -10 0 -6 -27 -10 -60 -10 -33 0 -60 -4 -60 -10
0 -5 -7 -10 -15 -10 -9 0 -27 -11 -40 -25 -24 -23 -25 -30 -25 -150 0 -118 -1
-125 -20 -125 -11 0 -20 5 -20 10 0 6 -7 10 -16 10 -9 0 -29 14 -44 30 -15 17
-34 30 -42 30 -7 0 -20 9 -28 20 -8 11 -21 20 -28 20 -8 0 -27 14 -42 30 -15
17 -33 30 -40 30 -7 0 -25 14 -40 30 -15 17 -35 30 -44 30 -9 0 -16 5 -16 10
0 6 -27 10 -60 10 -33 0 -60 -4 -60 -10 0 -6 -43 -10 -110 -10 -67 0 -110 -4
-110 -10 0 -6 -33 -10 -80 -10 -47 0 -80 -4 -80 -10 0 -6 -37 -10 -90 -10 -53
0 -90 -4 -90 -10 0 -5 -12 -10 -26 -10 -29 0 -54 -21 -54 -44 0 -9 -4 -16 -10
-16 -5 0 -10 -18 -10 -40 0 -22 -4 -40 -10 -40 -5 0 -10 -22 -10 -50 0 -27 -4
-50 -10 -50 -5 0 -10 -9 -10 -20 0 -11 -4 -20 -10 -20 -5 0 -10 14 -10 30 0
17 -4 30 -10 30 -5 0 -10 18 -10 40 0 22 -4 40 -10 40 -5 0 -10 7 -10 15 0 20
-65 85 -85 85 -8 0 -15 5 -15 10 0 6 -13 10 -30 10 -16 0 -30 -4 -30 -10 0 -6
-33 -10 -80 -10 -47 0 -80 -4 -80 -10 0 -6 -30 -10 -70 -10 -40 0 -70 -4 -70
-10 0 -5 -9 -10 -20 -10 -11 0 -20 -4 -20 -10 0 -5 -13 -10 -30 -10 -16 0 -30
5 -30 10 0 6 -33 10 -80 10 -47 0 -80 4 -80 10 0 6 -18 10 -40 10 -22 0 -40
-4 -40 -10 0 -6 -40 -10 -100 -10 -60 0 -100 -4 -100 -10 0 -5 -22 -10 -50
-10 -27 0 -50 -4 -50 -10 0 -5 -13 -10 -30 -10 -16 0 -30 -4 -30 -10 0 -5 -13
-10 -30 -10 -16 0 -30 -4 -30 -10 0 -5 -9 -10 -20 -10 -11 0 -20 -4 -20 -10 0
-5 -7 -10 -15 -10 -9 0 -40 -25 -70 -55 -30 -30 -55 -61 -55 -70 0 -8 -4 -15
-10 -15 -5 0 -10 -9 -10 -20 0 -11 -4 -20 -10 -20 -5 0 -10 -13 -10 -30 0 -16
-4 -30 -10 -30 -6 0 -10 -123 -10 -350 0 -227 4 -350 10 -350 6 0 10 -22 10
-50 0 -27 5 -50 10 -50 6 0 10 -9 10 -20 0 -11 5 -20 10 -20 6 0 10 -9 10 -20
0 -11 5 -20 10 -20 6 0 10 -7 10 -15 0 -9 20 -36 45 -60 24 -25 51 -45 60 -45
8 0 15 -4 15 -10 0 -5 -9 -10 -20 -10 -11 0 -20 -4 -20 -10 0 -5 -18 -10 -40
-10 -22 0 -40 -4 -40 -10 0 -5 -7 -10 -16 -10 -20 0 -44 -24 -44 -44 0 -9 -4
-16 -10 -16 -6 0 -10 -87 -10 -240 0 -153 4 -240 10 -240 6 0 10 -18 10 -40 0
-22 5 -40 10 -40 6 0 10 -12 10 -26 0 -16 12 -37 30 -54 16 -15 30 -35 30 -44
0 -9 7 -16 16 -16 9 0 29 -14 44 -30 15 -17 35 -30 44 -30 9 0 16 -4 16 -10 0
-5 9 -10 20 -10 11 0 20 -4 20 -10 0 -5 7 -10 16 -10 8 0 33 -18 54 -40 21
-22 46 -40 54 -40 9 0 16 -4 16 -10 0 -5 14 -10 30 -10 17 0 30 -4 30 -10 0
-5 23 -10 50 -10 28 0 50 -4 50 -10 0 -6 43 -10 110 -10 67 0 110 4 110 10 0
6 33 10 80 10 47 0 80 4 80 10 0 6 23 10 50 10 28 0 50 5 50 10 0 6 14 10 30
10 17 0 30 5 30 10 0 6 7 10 16 10 9 0 29 14 44 30 15 17 35 30 44 30 9 0 16
7 16 16 0 9 14 29 30 44 17 15 30 35 30 44 0 9 5 16 10 16 6 0 10 9 10 20 0
13 7 20 20 20 11 0 20 -4 20 -10 0 -5 8 -10 18 -10 10 0 24 -9 32 -20 8 -11
22 -20 32 -20 10 0 18 -4 18 -10 0 -5 8 -10 18 -10 10 0 24 -9 32 -20 8 -11
21 -20 28 -20 8 0 27 -13 42 -30 15 -16 35 -30 44 -30 9 0 16 -4 16 -10 0 -5
9 -10 20 -10 11 0 20 5 20 10 0 6 37 10 90 10 53 0 90 4 90 10 0 6 30 10 70
10 l70 0 0 110 c0 103 1 110 20 110 11 0 20 -4 20 -10 0 -5 8 -10 18 -10 10 0
24 -9 32 -20 8 -11 21 -20 30 -20 9 0 22 -9 30 -20 8 -11 21 -20 30 -20 9 0
22 -9 30 -20 8 -11 21 -20 30 -20 9 0 22 -9 30 -20 10 -14 26 -20 52 -20 21 0
38 5 38 10 0 6 33 10 80 10 47 0 80 4 80 10 0 6 33 10 80 10 47 0 80 4 80 10
0 6 33 10 80 10 47 0 80 4 80 10 0 6 37 10 90 10 53 0 90 4 90 10 0 6 37 10
90 10 53 0 90 4 90 10 0 6 33 10 80 10 47 0 80 4 80 10 0 6 37 10 90 10 53 0
90 4 90 10 0 6 33 10 80 10 47 0 80 4 80 10 0 6 33 10 80 10 47 0 80 4 80 10
0 6 33 10 80 10 47 0 80 4 80 10 0 6 29 10 66 10 92 0 94 4 94 144 0 71 4 116
10 116 6 0 10 -4 10 -10 0 -5 9 -10 20 -10 11 0 20 -4 20 -10 0 -5 8 -10 18
-10 10 0 24 -9 32 -20 8 -11 21 -20 30 -20 9 0 22 -9 30 -20 8 -11 21 -20 30
-20 9 0 22 -9 30 -20 8 -11 22 -20 32 -20 10 0 18 -4 18 -10 0 -5 9 -10 20
-10 11 0 20 -4 20 -10 0 -6 43 -10 110 -10 67 0 110 4 110 10 0 6 43 10 110
10 67 0 110 4 110 10 0 6 43 10 110 10 67 0 110 4 110 10 0 6 43 10 110 10 67
0 110 4 110 10 0 6 30 10 70 10 40 0 70 4 70 10 0 6 14 10 30 10 17 0 30 5 30
10 0 6 13 10 28 10 16 0 34 8 42 20 8 11 20 20 28 20 18 0 62 46 62 65 0 8 5
15 10 15 6 0 10 9 10 20 0 11 5 20 10 20 6 0 10 9 10 20 0 11 4 20 8 20 4 0
14 -9 22 -20 8 -11 22 -20 32 -20 10 0 18 -4 18 -10 0 -5 8 -10 18 -10 10 0
24 -9 32 -20 8 -11 22 -20 32 -20 10 0 18 -4 18 -10 0 -5 14 -10 30 -10 17 0
30 -4 30 -10 0 -6 27 -10 60 -10 33 0 60 -4 60 -10 0 -6 33 -10 80 -10 47 0
80 4 80 10 0 6 27 10 60 10 33 0 60 4 60 10 0 6 14 10 30 10 17 0 30 5 30 10
0 6 11 10 25 10 36 0 175 139 175 175 0 31 29 34 50 5 8 -11 22 -20 32 -20 10
0 18 -4 18 -10 0 -5 9 -10 20 -10 11 0 20 -4 20 -10 0 -5 9 -10 20 -10 11 0
20 -4 20 -10 0 -5 9 -10 20 -10 11 0 20 -4 20 -10 0 -5 14 -10 30 -10 17 0 30
-4 30 -10 0 -6 33 -10 80 -10 47 0 80 -4 80 -10 0 -5 9 -10 20 -10 11 0 20 5
20 10 0 6 40 10 100 10 60 0 100 4 100 10 0 6 18 10 40 10 22 0 40 5 40 10 0
6 9 10 20 10 11 0 20 5 20 10 0 6 9 10 20 10 11 0 20 5 20 10 0 6 9 10 20 10
11 0 20 5 20 10 0 6 8 10 18 10 10 0 24 9 32 20 8 11 20 20 28 20 18 0 62 46
62 65 0 8 5 15 10 15 6 0 10 9 10 20 0 11 5 20 10 20 6 0 10 14 10 30 0 17 5
30 10 30 6 0 10 120 10 340 0 220 -4 340 -10 340 -5 0 -10 14 -10 30 0 17 -4
30 -10 30 -5 0 -10 7 -10 15 0 19 -84 105 -103 105 -7 0 -19 9 -27 20 -8 11
-20 20 -28 20 -22 0 -42 26 -42 54 0 14 -4 26 -10 26 -5 0 -10 14 -10 30 0 17
-4 30 -10 30 -5 0 -10 14 -10 30 l0 30 90 0 c53 0 90 4 90 10 0 6 23 10 50 10
l50 0 0 210 c0 133 -4 210 -10 210 -6 0 -10 32 -10 75 0 67 -3 79 -25 100 -13
14 -29 25 -36 25 -6 0 -24 14 -39 30 -15 17 -34 30 -42 30 -7 0 -20 9 -28 20
-8 11 -20 20 -28 20 -7 0 -40 27 -72 60 -32 33 -66 60 -74 60 -9 0 -16 5 -16
10 0 6 -9 10 -20 10 -11 0 -20 5 -20 10 0 6 -13 10 -30 10 -16 0 -30 5 -30 10
0 6 -60 10 -160 10 -100 0 -160 -4 -160 -10 0 -6 -30 -10 -70 -10 -40 0 -70
-4 -70 -10 0 -5 -18 -10 -40 -10 -22 0 -40 -4 -40 -10 0 -5 -13 -10 -30 -10
-16 0 -30 -4 -30 -10 0 -5 -9 -10 -20 -10 -11 0 -20 -4 -20 -10 0 -5 -13 -10
-30 -10 -16 0 -30 -4 -30 -10 0 -5 -9 -10 -20 -10 -11 0 -20 5 -20 10 0 6 -9
10 -20 10 -11 0 -20 5 -20 10 0 6 -13 10 -30 10 -16 0 -30 -4 -30 -10 0 -6
-50 -10 -130 -10 -80 0 -130 -4 -130 -10 0 -5 -16 -10 -35 -10 -46 0 -85 -37
-85 -80 0 -17 -7 -38 -15 -46 -13 -14 -19 -11 -54 25 -22 23 -46 41 -53 41 -7
0 -20 9 -28 20 -13 17 -26 20 -102 20 -52 0 -88 -4 -88 -10 0 -6 -33 -10 -80
-10 -47 0 -80 -4 -80 -10 0 -5 -7 -10 -15 -10 -20 0 -65 -45 -65 -65 0 -10
-10 -15 -30 -15 -16 0 -30 5 -30 10 0 6 -18 10 -40 10 -22 0 -40 5 -40 10 0 6
-60 10 -160 10 -100 0 -160 -4 -160 -10 0 -5 -13 -10 -30 -10 l-30 0 0 230 c0
204 2 230 16 230 9 0 29 -13 44 -30 15 -16 34 -30 42 -30 7 0 20 -9 28 -20 8
-11 21 -20 30 -20 9 0 22 -9 30 -20 8 -11 21 -20 28 -20 8 0 27 -13 42 -30 15
-16 33 -30 40 -30 7 0 25 -13 40 -30 l28 -30 126 0 c77 0 126 4 126 10 0 6 37
10 90 10 53 0 90 4 90 10 0 6 33 10 80 10 l80 0 0 860 c0 567 -3 860 -10 860
-6 0 -10 77 -10 210 0 203 1 210 20 210 11 0 20 -4 20 -10 0 -6 33 -10 80 -10
47 0 80 4 80 10 0 6 33 10 80 10 47 0 80 4 80 10 0 6 40 10 100 10 60 0 100 4
100 10 0 6 14 10 30 10 l30 0 0 320 c0 207 -4 320 -10 320 -5 0 -10 9 -10 20
0 11 -4 20 -10 20 -5 0 -10 7 -10 15 0 19 -64 85 -82 85 -8 0 -20 9 -28 20 -8
11 -21 20 -30 20 -9 0 -22 9 -30 20 -8 11 -21 20 -30 20 -9 0 -22 9 -30 20 -8
11 -21 20 -28 20 -8 0 -27 14 -42 30 -15 17 -33 30 -40 30 -7 0 -25 14 -40 30
-15 17 -35 30 -44 30 -9 0 -16 5 -16 10 0 6 -7 10 -16 10 -31 0 -44 27 -44 94
0 37 -4 66 -10 66 -5 0 -10 7 -10 15 0 20 -65 85 -85 85 -8 0 -15 5 -15 10 0
6 -33 10 -80 10 -47 0 -80 -4 -80 -10z m100 -460 l0 -270 -40 0 c-22 0 -40 -4
-40 -10 0 -6 -40 -10 -100 -10 -60 0 -100 -4 -100 -10 0 -6 -37 -10 -90 -10
-53 0 -90 -4 -90 -10 0 -5 -13 -10 -30 -10 l-30 0 0 -1090 0 -1090 -50 0 c-27
0 -50 -4 -50 -10 0 -6 -63 -10 -170 -10 -107 0 -170 -4 -170 -10 0 -15 -29
-12 -46 4 -12 12 -14 170 -14 1080 l0 1066 -50 0 c-27 0 -50 -4 -50 -10 0 -6
-37 -10 -90 -10 -53 0 -90 -4 -90 -10 0 -6 -30 -10 -70 -10 l-70 0 0 60 c0 33
4 60 10 60 6 0 10 83 10 230 l0 230 80 0 c47 0 80 4 80 10 0 6 43 10 110 10
67 0 110 4 110 10 0 6 47 10 120 10 73 0 120 4 120 10 0 6 47 10 120 10 73 0
120 4 120 10 0 6 37 10 90 10 53 0 90 4 90 10 0 6 37 10 90 10 53 0 90 4 90
10 0 6 40 10 100 10 l100 0 0 -270z m-1460 -950 c0 -713 -3 -1080 -10 -1080
-6 0 -10 -27 -10 -60 0 -33 -4 -60 -10 -60 -5 0 -10 -13 -10 -30 0 -16 -4 -30
-10 -30 -5 0 -10 -7 -10 -16 0 -26 -26 -44 -64 -44 -20 0 -36 -4 -36 -10 0 -6
-40 -10 -100 -10 -60 0 -100 -4 -100 -10 0 -5 -25 -10 -55 -10 -46 0 -60 -4
-80 -25 -14 -13 -25 -31 -25 -40 0 -8 -9 -15 -20 -15 -11 0 -20 5 -20 10 0 6
-18 10 -40 10 -22 0 -40 5 -40 10 0 6 -57 10 -150 10 -93 0 -150 -4 -150 -10
0 -6 -27 -10 -60 -10 -33 0 -60 -4 -60 -10 0 -5 -13 -10 -30 -10 -16 0 -30 -4
-30 -10 0 -5 -9 -10 -20 -10 -11 0 -20 -4 -20 -10 0 -5 -11 -10 -25 -10 -34 0
-95 61 -95 95 0 14 -4 25 -10 25 -5 0 -10 18 -10 40 0 22 -4 40 -10 40 -6 0
-10 40 -10 100 0 60 -4 100 -10 100 -7 0 -10 343 -10 1010 l0 1010 100 0 c60
0 100 4 100 10 0 6 50 10 130 10 80 0 130 4 130 10 0 6 9 10 20 10 19 0 20 -7
20 -260 0 -167 4 -260 10 -260 7 0 10 -252 10 -735 l0 -736 25 -24 c22 -23 32
-25 110 -25 50 0 85 4 85 10 0 6 11 10 25 10 14 0 37 11 50 25 21 20 25 34 25
80 0 30 5 55 10 55 6 0 10 43 10 110 0 67 -4 110 -10 110 -7 0 -10 287 -10
840 l0 840 50 0 c28 0 50 5 50 10 0 6 30 10 70 10 40 0 70 4 70 10 0 6 33 10
80 10 47 0 80 4 80 10 0 6 23 10 50 10 l50 0 0 -1080z m-1780 950 c0 -5 18
-10 40 -10 22 0 40 -4 40 -10 0 -5 13 -10 28 -10 16 0 34 -8 42 -20 8 -11 20
-20 28 -20 17 0 42 -25 42 -42 0 -8 9 -20 20 -28 12 -8 20 -26 20 -42 0 -15 5
-28 10 -28 6 0 10 -22 10 -50 0 -27 5 -50 10 -50 6 0 10 -90 10 -250 0 -160 4
-250 10 -250 7 0 10 -240 10 -700 0 -460 -3 -700 -10 -700 -6 0 -10 -33 -10
-80 0 -47 -4 -80 -10 -80 -5 0 -10 -22 -10 -50 0 -27 -4 -50 -10 -50 -5 0 -10
-18 -10 -40 0 -22 -4 -40 -10 -40 -5 0 -10 -8 -10 -18 0 -10 -9 -24 -20 -32
-11 -8 -20 -20 -20 -28 0 -17 -25 -42 -42 -42 -8 0 -20 -9 -28 -20 -8 -11 -22
-20 -32 -20 -10 0 -18 -4 -18 -10 0 -5 -13 -10 -30 -10 -16 0 -30 -4 -30 -10
0 -5 -9 -10 -20 -10 -11 0 -20 -4 -20 -10 0 -5 -13 -10 -30 -10 -16 0 -30 -4
-30 -10 0 -5 -18 -10 -40 -10 -22 0 -40 -4 -40 -10 0 -5 -18 -10 -40 -10 -22
0 -40 -4 -40 -10 0 -6 -30 -10 -70 -10 -40 0 -70 -4 -70 -10 0 -6 -90 -10
-250 -10 -160 0 -250 4 -250 10 0 6 -18 10 -40 10 -22 0 -40 5 -40 10 0 6 -9
10 -20 10 -11 0 -20 5 -20 10 0 6 -7 10 -15 10 -20 0 -125 105 -125 125 0 8
-4 15 -10 15 -5 0 -10 14 -10 30 0 17 -4 30 -10 30 -5 0 -10 18 -10 40 0 22
-4 40 -10 40 -6 0 -10 37 -10 90 0 53 -4 90 -10 90 -7 0 -10 313 -10 920 0
607 3 920 10 920 6 0 10 27 10 60 0 33 4 60 10 60 6 0 10 14 10 30 0 17 5 30
10 30 6 0 10 7 10 15 0 19 104 125 123 125 7 0 19 9 27 20 8 11 22 20 32 20
10 0 18 5 18 10 0 6 9 10 20 10 11 0 20 5 20 10 0 6 14 10 30 10 17 0 30 5 30
10 0 6 14 10 30 10 17 0 30 5 30 10 0 6 18 10 40 10 22 0 40 5 40 10 0 6 27
10 60 10 33 0 60 4 60 10 0 6 27 10 60 10 33 0 60 4 60 10 0 6 87 10 240 10
153 0 240 -4 240 -10z m1866 -2404 c10 -10 14 -39 14 -100 l0 -86 -90 0 c-53
0 -90 -4 -90 -10 0 -5 -25 -10 -56 -10 -75 0 -84 -11 -84 -104 l0 -76 90 0
c53 0 90 4 90 10 0 6 27 10 60 10 l60 0 0 -90 0 -90 -30 0 c-16 0 -30 -4 -30
-10 0 -6 -39 -10 -96 -10 -69 0 -99 -4 -110 -14 -11 -12 -14 -57 -14 -230 l0
-216 -30 0 c-16 0 -30 -4 -30 -10 0 -16 -109 -12 -126 4 -12 12 -14 90 -14
479 0 362 -3 466 -12 469 -9 3 -8 9 4 21 11 12 34 17 72 17 31 0 56 5 56 10 0
6 33 10 80 10 47 0 80 4 80 10 0 6 33 10 80 10 47 0 80 4 80 10 0 15 29 12 46
-4z m-766 -116 c0 -5 7 -10 16 -10 26 0 44 -26 44 -64 0 -20 5 -36 10 -36 6 0
10 -127 10 -360 0 -233 -4 -360 -10 -360 -5 0 -10 -13 -10 -30 0 -16 -4 -30
-10 -30 -5 0 -10 -7 -10 -15 0 -20 -65 -85 -85 -85 -8 0 -15 -4 -15 -10 0 -5
-22 -10 -50 -10 -27 0 -50 -4 -50 -10 0 -6 -53 -10 -140 -10 -87 0 -140 4
-140 10 0 6 -7 10 -16 10 -23 0 -44 25 -44 54 0 14 -4 26 -10 26 -6 0 -10 43
-10 110 0 67 -4 110 -10 110 -6 0 -10 87 -10 240 0 153 4 240 10 240 6 0 10
27 10 60 0 33 4 60 10 60 6 0 10 7 10 16 0 20 24 44 44 44 9 0 16 5 16 10 0 6
9 10 20 10 11 0 20 5 20 10 0 6 27 10 60 10 33 0 60 4 60 10 0 6 53 10 140 10
87 0 140 -4 140 -10z m3540 -660 c0 -5 20 -10 45 -10 39 0 51 -5 80 -35 22
-21 35 -44 35 -60 0 -14 5 -25 10 -25 6 0 10 -67 10 -180 l0 -180 -40 0 c-22
0 -40 -4 -40 -10 0 -6 -37 -10 -90 -10 l-90 0 0 120 0 120 -29 0 c-16 0 -32 6
-35 13 -5 10 -7 10 -12 0 -4 -9 -29 -13 -75 -13 -39 0 -69 -4 -69 -10 0 -5 -7
-10 -16 -10 -41 0 -44 -19 -44 -250 0 -179 3 -224 14 -236 17 -17 166 -20 166
-4 0 6 53 10 140 10 87 0 140 -4 140 -10 0 -5 9 -10 20 -10 13 0 20 -7 20 -20
0 -11 5 -20 10 -20 6 0 10 -13 10 -30 0 -16 5 -30 10 -30 6 0 10 -50 10 -130
0 -80 4 -130 10 -130 6 0 10 -87 10 -240 0 -153 -4 -240 -10 -240 -5 0 -10
-18 -10 -40 0 -22 -4 -40 -10 -40 -5 0 -10 -7 -10 -15 0 -20 -85 -105 -105
-105 -8 0 -15 -4 -15 -10 0 -5 -18 -10 -40 -10 -22 0 -40 -4 -40 -10 0 -5 -22
-10 -50 -10 -27 0 -50 -4 -50 -10 0 -6 -67 -10 -180 -10 -113 0 -180 4 -180
10 0 6 -11 10 -25 10 -29 0 -75 40 -75 65 0 8 -4 15 -10 15 -6 0 -10 87 -10
240 l0 240 80 0 c47 0 80 4 80 10 0 6 18 10 40 10 l40 0 0 -140 c0 -87 4 -140
10 -140 6 0 10 -7 10 -16 0 -34 26 -44 114 -44 51 0 86 4 86 10 0 6 12 10 26
10 53 0 54 7 54 290 0 283 -1 290 -54 290 -14 0 -26 -4 -26 -10 0 -6 -70 -10
-190 -10 -120 0 -190 4 -190 10 0 6 -9 10 -20 10 -13 0 -20 7 -20 20 0 11 -4
20 -10 20 -5 0 -10 14 -10 30 0 17 -4 30 -10 30 -6 0 -10 130 -10 370 0 240 4
370 10 370 6 0 10 9 10 20 0 11 5 20 10 20 6 0 10 7 10 16 0 20 24 44 44 44 9
0 16 5 16 10 0 6 9 10 20 10 11 0 20 5 20 10 0 6 14 10 30 10 17 0 30 5 30 10
0 6 23 10 50 10 28 0 50 5 50 10 0 6 30 10 70 10 40 0 70 4 70 10 0 6 37 10
90 10 53 0 90 -4 90 -10z m-760 -430 c0 -220 4 -340 10 -340 7 0 10 -160 10
-460 0 -300 -3 -460 -10 -460 -5 0 -10 -22 -10 -50 0 -27 -4 -50 -10 -50 -5 0
-10 -9 -10 -20 0 -11 -4 -20 -10 -20 -5 0 -10 -7 -10 -15 0 -19 -44 -65 -62
-65 -8 0 -20 -9 -28 -20 -8 -12 -26 -20 -42 -20 -15 0 -28 -4 -28 -10 0 -5
-13 -10 -30 -10 -16 0 -30 -4 -30 -10 0 -5 -22 -10 -50 -10 -27 0 -50 -4 -50
-10 0 -6 -53 -10 -140 -10 -87 0 -140 4 -140 10 0 6 -11 10 -25 10 -29 0 -95
59 -95 85 0 8 -4 15 -10 15 -5 0 -10 14 -10 30 0 17 -4 30 -10 30 -6 0 -10 73
-10 200 0 127 -4 200 -10 200 -7 0 -10 215 -10 626 0 529 2 628 14 640 10 10
39 14 100 14 51 0 86 4 86 10 0 6 9 10 20 10 18 0 20 -7 20 -70 0 -40 4 -70
10 -70 7 0 10 -240 10 -700 0 -460 3 -700 10 -700 6 0 10 -12 10 -26 0 -44 20
-54 114 -54 51 0 86 4 86 10 0 6 12 10 26 10 33 0 54 21 54 54 0 14 5 26 10
26 16 0 13 537 -2 543 -10 4 -9 8 2 17 11 9 12 13 3 17 -10 4 -13 110 -13 484
l0 479 60 0 c33 0 60 4 60 10 0 6 30 10 70 10 l70 0 0 -340z m-1100 190 c0 -5
9 -10 20 -10 11 0 20 -4 20 -10 0 -5 7 -10 16 -10 20 0 44 -24 44 -44 0 -9 5
-16 10 -16 6 0 10 -9 10 -20 0 -11 5 -20 10 -20 6 0 10 -33 10 -80 0 -47 4
-80 10 -80 6 0 10 -43 10 -110 0 -67 -4 -110 -10 -110 -6 0 -10 -37 -10 -90 0
-53 -4 -90 -10 -90 -5 0 -10 -11 -10 -25 0 -29 -59 -95 -85 -95 -8 0 -15 -9
-15 -20 0 -16 7 -20 30 -20 17 0 30 -4 30 -10 0 -5 7 -10 16 -10 20 0 44 -24
44 -44 0 -9 5 -16 10 -16 6 0 10 -33 10 -80 0 -47 4 -80 10 -80 6 0 10 -83 10
-230 0 -147 -4 -230 -10 -230 -5 0 -10 -22 -10 -50 0 -27 -4 -50 -10 -50 -5 0
-10 -9 -10 -20 0 -11 -4 -20 -10 -20 -5 0 -10 -7 -10 -15 0 -20 -65 -85 -85
-85 -8 0 -15 -4 -15 -10 0 -5 -13 -10 -30 -10 -16 0 -30 -4 -30 -10 0 -5 -18
-10 -40 -10 -22 0 -40 -4 -40 -10 0 -6 -33 -10 -80 -10 -47 0 -80 -4 -80 -10
0 -6 -37 -10 -90 -10 -53 0 -90 -4 -90 -10 0 -6 -37 -10 -90 -10 -53 0 -90 -4
-90 -10 0 -5 -4 -10 -10 -10 -7 0 -10 173 -10 500 0 327 -3 500 -10 500 -7 0
-10 153 -10 440 l0 440 60 0 c33 0 60 4 60 10 0 6 40 10 100 10 60 0 100 4
100 10 0 6 67 10 180 10 113 0 180 -4 180 -10z m-1060 -110 c0 -11 5 -20 10
-20 6 0 10 -27 10 -60 0 -33 4 -60 10 -60 6 0 10 -27 10 -60 0 -33 4 -60 10
-60 6 0 10 -27 10 -60 0 -33 4 -60 10 -60 6 0 10 -27 10 -60 0 -33 4 -60 10
-60 6 0 10 -27 10 -60 0 -33 4 -60 10 -60 6 0 10 -27 10 -60 0 -33 4 -60 10
-60 6 0 10 -27 10 -60 0 -33 4 -60 10 -60 6 0 10 -27 10 -60 0 -33 4 -60 10
-60 6 0 10 -27 10 -60 0 -33 4 -60 10 -60 6 0 10 -27 10 -60 0 -33 4 -60 10
-60 6 0 10 -30 10 -70 0 -40 4 -70 10 -70 6 0 10 -30 10 -70 0 -40 4 -70 10
-70 6 0 10 -30 10 -70 0 -40 4 -70 10 -70 6 0 10 -22 10 -50 0 -27 5 -50 10
-50 6 0 10 -13 10 -30 0 -23 -4 -30 -20 -30 -11 0 -20 -4 -20 -10 0 -6 -37
-10 -90 -10 -53 0 -90 -4 -90 -10 0 -5 -9 -10 -20 -10 -17 0 -20 7 -20 50 0
28 -4 50 -10 50 -6 0 -10 27 -10 60 0 33 -4 60 -10 60 -5 0 -10 25 -10 56 0
35 -5 61 -14 70 -17 16 -126 20 -126 4 0 -6 -37 -10 -90 -10 -53 0 -90 -4 -90
-10 0 -5 -9 -10 -20 -10 -13 0 -20 -7 -20 -20 0 -11 -4 -20 -10 -20 -6 0 -10
-37 -10 -90 0 -53 -4 -90 -10 -90 -6 0 -10 -30 -10 -70 0 -63 -2 -70 -20 -70
-11 0 -20 -4 -20 -10 0 -6 -37 -10 -90 -10 -53 0 -90 -4 -90 -10 0 -5 -9 -10
-20 -10 -16 0 -20 7 -20 30 0 17 5 30 10 30 6 0 10 33 10 80 0 47 4 80 10 80
6 0 10 43 10 110 0 67 4 110 10 110 6 0 10 40 10 100 0 60 4 100 10 100 6 0
10 33 10 80 0 47 4 80 10 80 6 0 10 33 10 80 0 47 4 80 10 80 6 0 10 33 10 80
0 47 4 80 10 80 6 0 10 33 10 80 0 47 4 80 10 80 6 0 10 33 10 80 0 47 4 80
10 80 6 0 10 30 10 70 0 40 4 70 10 70 6 0 10 33 10 80 0 47 4 80 10 80 6 0
10 30 10 70 l0 70 30 0 c17 0 30 -4 30 -10 0 -6 30 -10 70 -10 40 0 70 4 70
10 0 6 33 10 80 10 47 0 80 4 80 10 0 6 14 10 30 10 23 0 30 4 30 20 0 11 5
20 10 20 6 0 10 -9 10 -20z m-1195 -115 l35 -34 0 -771 c0 -707 1 -773 17
-788 12 -12 18 -13 21 -4 2 8 33 12 103 12 59 0 99 4 99 10 0 6 37 10 90 10
l90 0 0 -120 c0 -113 -1 -120 -20 -120 -11 0 -20 -4 -20 -10 0 -6 -37 -10 -90
-10 -53 0 -90 -4 -90 -10 0 -6 -33 -10 -80 -10 -47 0 -80 -4 -80 -10 0 -6 -37
-10 -90 -10 -53 0 -90 -4 -90 -10 0 -6 -27 -10 -60 -10 l-60 0 0 950 0 950 70
0 c40 0 70 4 70 10 0 23 52 8 85 -25z m-745 -875 l0 -810 100 0 c60 0 100 4
100 10 0 6 37 10 90 10 53 0 90 4 90 10 0 6 9 10 20 10 19 0 20 -7 20 -130 l0
-130 -30 0 c-16 0 -30 -4 -30 -10 0 -6 -37 -10 -90 -10 -53 0 -90 -4 -90 -10
0 -6 -37 -10 -90 -10 -53 0 -90 -4 -90 -10 0 -6 -37 -10 -90 -10 -53 0 -90 -4
-90 -10 0 -5 -13 -10 -30 -10 l-30 0 0 160 c0 100 -4 160 -10 160 -7 0 -10
270 -10 790 l0 790 70 0 c40 0 70 4 70 10 0 6 27 10 60 10 l60 0 0 -810z
m-360 740 c0 -16 -4 -30 -10 -30 -5 0 -10 -18 -10 -40 0 -22 -4 -40 -10 -40
-5 0 -10 -18 -10 -40 0 -22 -4 -40 -10 -40 -5 0 -10 -13 -10 -30 0 -16 -4 -30
-10 -30 -5 0 -10 -18 -10 -40 0 -22 -4 -40 -10 -40 -5 0 -10 -18 -10 -40 0
-22 -4 -40 -10 -40 -5 0 -10 -13 -10 -30 0 -16 -4 -30 -10 -30 -5 0 -10 -18
-10 -40 0 -22 -4 -40 -10 -40 -5 0 -10 -18 -10 -40 0 -22 -4 -40 -10 -40 -5 0
-10 -18 -10 -40 0 -22 -4 -40 -10 -40 -5 0 -10 -18 -10 -40 0 -22 -4 -40 -10
-40 -5 0 -10 -18 -10 -40 0 -22 -4 -40 -10 -40 -5 0 -10 -18 -10 -40 0 -22 -4
-40 -10 -40 -5 0 -10 -13 -10 -30 0 -16 -4 -30 -10 -30 -5 0 -10 -18 -10 -40
0 -22 -4 -40 -10 -40 -6 0 -10 -140 -10 -400 l0 -400 -90 0 c-53 0 -90 -4 -90
-10 0 -5 -18 -10 -40 -10 l-40 0 0 330 c0 213 -4 330 -10 330 -6 0 -10 30 -10
70 0 40 -4 70 -10 70 -5 0 -10 14 -10 30 0 17 -4 30 -10 30 -5 0 -10 14 -10
30 0 17 -4 30 -10 30 -5 0 -10 18 -10 40 0 22 -4 40 -10 40 -5 0 -10 14 -10
30 0 17 -4 30 -10 30 -5 0 -10 18 -10 40 0 22 -4 40 -10 40 -5 0 -10 14 -10
30 0 17 -4 30 -10 30 -5 0 -10 18 -10 40 0 22 -4 40 -10 40 -5 0 -10 14 -10
30 0 17 -4 30 -10 30 -5 0 -10 14 -10 30 0 17 -4 30 -10 30 -5 0 -10 18 -10
40 0 22 -4 40 -10 40 -5 0 -10 18 -10 40 0 22 -4 40 -10 40 -5 0 -10 18 -10
40 0 22 -4 40 -10 40 -5 0 -10 14 -10 30 0 17 -4 30 -10 30 -5 0 -10 14 -10
30 0 17 -4 30 -10 30 -15 0 -12 70 4 86 10 10 39 14 100 14 51 0 86 4 86 10 0
6 9 10 20 10 16 0 20 -7 20 -30 0 -16 5 -30 10 -30 6 0 10 -13 10 -30 0 -16 5
-30 10 -30 6 0 10 -13 10 -30 0 -16 5 -30 10 -30 6 0 10 -18 10 -40 0 -22 5
-40 10 -40 6 0 10 -18 10 -40 0 -22 5 -40 10 -40 6 0 10 -18 10 -40 0 -22 5
-40 10 -40 6 0 10 -18 10 -40 0 -22 5 -40 10 -40 6 0 10 -13 10 -30 0 -16 5
-30 10 -30 6 0 10 -18 10 -40 0 -22 5 -40 10 -40 6 0 10 -18 10 -40 0 -22 5
-40 10 -40 6 0 10 -9 10 -20 0 -11 5 -20 10 -20 6 0 10 18 10 40 0 22 5 40 10
40 6 0 10 27 10 60 0 33 4 60 10 60 6 0 10 27 10 60 0 33 4 60 10 60 6 0 10
18 10 40 0 22 5 40 10 40 6 0 10 23 10 50 0 28 5 50 10 50 6 0 10 23 10 50 0
28 5 50 10 50 6 0 10 18 10 40 0 22 5 40 10 40 6 0 10 21 10 46 0 58 16 74 74
74 25 0 46 5 46 10 0 6 33 10 80 10 l80 0 0 -30z m-1100 -100 c0 -5 7 -10 15
-10 25 0 65 -46 65 -75 0 -14 5 -25 10 -25 6 0 10 -70 10 -190 l0 -190 -80 0
c-47 0 -80 -4 -80 -10 0 -5 -18 -10 -40 -10 l-40 0 0 100 c0 60 -4 100 -10
100 -5 0 -10 12 -10 26 0 40 -22 54 -84 54 -31 0 -56 -4 -56 -10 0 -5 -22 -10
-50 -10 -27 0 -50 -4 -50 -10 0 -5 -9 -10 -20 -10 -19 0 -20 -7 -20 -236 0
-191 3 -238 14 -250 17 -17 206 -21 206 -4 0 6 45 10 115 10 l116 0 34 -35
c19 -19 35 -41 35 -50 0 -8 5 -15 10 -15 6 0 10 -33 10 -80 0 -47 4 -80 10
-80 6 0 10 -113 10 -320 0 -207 -4 -320 -10 -320 -5 0 -10 -18 -10 -40 0 -22
-4 -40 -10 -40 -5 0 -10 -7 -10 -15 0 -26 -86 -105 -115 -105 -14 0 -25 -4
-25 -10 0 -5 -13 -10 -30 -10 -16 0 -30 -4 -30 -10 0 -5 -22 -10 -50 -10 -27
0 -50 -4 -50 -10 0 -6 -63 -10 -170 -10 -107 0 -170 4 -170 10 0 6 -11 10 -25
10 -29 0 -95 59 -95 85 0 8 -4 15 -10 15 -6 0 -10 83 -10 230 l0 230 90 0 c53
0 90 4 90 10 0 6 14 10 30 10 l30 0 0 -145 c0 -142 1 -147 25 -170 22 -23 31
-25 125 -25 94 0 103 2 125 25 14 13 25 31 25 40 0 8 5 15 10 15 6 0 10 18 10
40 0 22 -4 40 -10 40 -6 0 -10 83 -10 230 l0 230 -90 0 c-53 0 -90 -4 -90 -10
0 -6 -47 -10 -120 -10 -73 0 -120 4 -120 10 0 6 -7 10 -15 10 -26 0 -85 66
-85 95 0 14 -4 25 -10 25 -6 0 -10 127 -10 360 0 233 4 360 10 360 6 0 10 11
10 25 0 29 59 95 85 95 8 0 15 5 15 10 0 6 9 10 20 10 11 0 20 5 20 10 0 6 14
10 30 10 17 0 30 5 30 10 0 6 23 10 50 10 28 0 50 5 50 10 0 6 70 10 190 10
120 0 190 -4 190 -10z"/>
<path d="M3160 7350 c0 -5 -13 -10 -30 -10 -16 0 -30 -4 -30 -10 0 -5 -7 -10
-16 -10 -20 0 -44 -24 -44 -44 0 -9 -4 -16 -10 -16 -7 0 -10 -227 -10 -660 0
-433 3 -660 10 -660 6 0 10 -53 10 -140 0 -133 1 -140 20 -140 11 0 20 -4 20
-10 0 -6 37 -10 90 -10 53 0 90 4 90 10 0 6 27 10 60 10 33 0 60 4 60 10 0 6
9 10 20 10 13 0 20 7 20 20 0 11 5 20 10 20 7 0 10 267 10 780 0 513 -3 780
-10 780 -5 0 -10 12 -10 26 0 47 -18 54 -144 54 -71 0 -116 -4 -116 -10z"/>
<path d="M4480 5210 c0 -5 -9 -10 -20 -10 -20 0 -20 -7 -20 -290 0 -187 4
-290 10 -290 6 0 10 -9 10 -20 0 -18 7 -20 70 -20 40 0 70 4 70 10 0 6 14 10
30 10 23 0 30 4 30 20 0 11 5 20 10 20 6 0 10 80 10 220 0 140 -4 220 -10 220
-6 0 -10 30 -10 70 l0 70 -90 0 c-53 0 -90 -4 -90 -10z"/>
<path d="M6180 4270 c0 -6 -30 -10 -70 -10 l-70 0 0 -260 0 -260 100 0 c60 0
100 4 100 10 0 6 21 10 46 10 74 0 74 -1 74 250 l0 221 -25 24 c-21 22 -33 25
-90 25 -37 0 -65 -4 -65 -10z"/>
<path d="M6280 3510 c0 -6 -40 -10 -100 -10 -60 0 -100 -4 -100 -10 0 -5 -9
-10 -20 -10 -19 0 -20 -7 -20 -140 0 -87 4 -140 10 -140 6 0 10 -57 10 -150
l0 -150 100 0 c60 0 100 4 100 10 0 6 18 10 40 10 22 0 40 5 40 10 0 6 9 10
20 10 18 0 20 7 20 60 0 33 4 60 10 60 6 0 10 23 10 50 0 28 -4 50 -10 50 -6
0 -10 63 -10 170 0 163 -1 170 -20 170 -11 0 -20 5 -20 10 0 6 -13 10 -30 10
-16 0 -30 -4 -30 -10z"/>
<path d="M5180 4200 c0 -47 -4 -80 -10 -80 -6 0 -10 -37 -10 -90 0 -53 -4 -90
-10 -90 -6 0 -10 -40 -10 -100 0 -60 -4 -100 -10 -100 -6 0 -10 -40 -10 -100
0 -60 -4 -100 -10 -100 -6 0 -10 -37 -10 -90 0 -53 -4 -90 -10 -90 -6 0 -10
-40 -10 -100 0 -60 -4 -100 -10 -100 -5 0 -10 -4 -10 -10 0 -6 37 -10 90 -10
53 0 90 4 90 10 0 6 23 10 50 10 l50 0 0 70 c0 40 -4 70 -10 70 -6 0 -10 30
-10 70 0 40 -4 70 -10 70 -6 0 -10 30 -10 70 0 40 -4 70 -10 70 -6 0 -10 30
-10 70 0 40 -4 70 -10 70 -6 0 -10 30 -10 70 0 40 -4 70 -10 70 -6 0 -10 27
-10 60 0 33 -4 60 -10 60 -6 0 -10 37 -10 90 0 53 -4 90 -10 90 -6 0 -10 27
-10 60 0 33 -4 60 -10 60 -6 0 -10 -33 -10 -80z"/>
<path d="M7240 8270 c0 -57 3 -70 16 -70 9 0 29 -13 44 -30 15 -16 35 -30 44
-30 9 0 16 -4 16 -10 0 -5 8 -10 18 -10 10 0 24 -9 32 -20 8 -11 21 -20 30
-20 9 0 22 -9 30 -20 8 -11 21 -20 30 -20 9 0 22 -9 30 -20 8 -11 21 -20 30
-20 9 0 22 -9 30 -20 8 -11 21 -20 28 -20 8 0 27 -13 42 -30 15 -16 33 -30 39
-30 7 0 23 -11 36 -25 l25 -24 0 -446 c0 -438 0 -445 -20 -445 -11 0 -20 -4
-20 -10 0 -6 -43 -10 -110 -10 -67 0 -110 -4 -110 -10 0 -6 -40 -10 -100 -10
-60 0 -100 -4 -100 -10 0 -6 -30 -10 -70 -10 l-70 0 0 -709 c0 -558 3 -710 13
-714 9 -4 8 -8 -3 -16 -13 -10 -13 -12 0 -22 11 -8 12 -12 3 -16 -15 -6 -18
-83 -3 -83 6 0 10 -73 10 -200 l0 -200 60 0 c33 0 60 4 60 10 0 6 40 10 100
10 60 0 100 4 100 10 0 6 40 10 100 10 60 0 100 4 100 10 0 6 40 10 100 10 60
0 100 4 100 10 0 6 37 10 90 10 53 0 90 4 90 10 0 6 40 10 100 10 60 0 100 4
100 10 0 6 33 10 78 10 66 0 80 -3 92 -20 8 -11 21 -20 28 -20 7 0 31 -18 52
-40 21 -22 45 -40 52 -40 7 0 20 -9 28 -20 8 -11 21 -20 30 -20 9 0 22 -9 30
-20 8 -11 21 -20 30 -20 9 0 22 -9 30 -20 8 -11 22 -20 32 -20 10 0 18 -4 18
-10 0 -5 8 -10 18 -10 10 0 24 -9 32 -20 8 -11 21 -20 30 -20 9 0 22 -9 30
-20 8 -11 20 -20 28 -20 7 0 24 -11 37 -25 l25 -24 0 -386 0 -385 -90 0 c-53
0 -90 -4 -90 -10 0 -5 -13 -10 -30 -10 -16 0 -30 -4 -30 -10 0 -5 8 -10 18
-10 10 0 24 -9 32 -20 8 -11 20 -20 27 -20 19 0 103 -86 103 -105 0 -8 5 -15
10 -15 6 0 10 -9 10 -20 0 -11 5 -20 10 -20 6 0 10 -18 10 -40 0 -22 5 -40 10
-40 6 0 10 -130 10 -370 0 -240 -4 -370 -10 -370 -5 0 -10 -18 -10 -40 0 -22
-4 -40 -10 -40 -5 0 -10 -8 -10 -18 0 -10 -9 -24 -20 -32 -11 -8 -20 -20 -20
-28 0 -17 -65 -82 -82 -82 -8 0 -20 -9 -28 -20 -8 -11 -22 -20 -32 -20 -10 0
-18 -4 -18 -10 0 -5 -9 -10 -20 -10 -11 0 -20 -4 -20 -10 0 -5 -13 -10 -30
-10 -16 0 -30 -4 -30 -10 0 -5 -9 -10 -20 -10 -11 0 -20 -4 -20 -10 0 -5 -18
-10 -40 -10 -22 0 -40 -4 -40 -10 0 -6 -77 -10 -210 -10 -133 0 -210 4 -210
10 0 6 -18 10 -40 10 -22 0 -40 5 -40 10 0 6 -9 10 -20 10 -11 0 -20 5 -20 10
0 6 -9 10 -20 10 -11 0 -20 5 -20 10 0 6 -9 10 -20 10 -11 0 -20 5 -20 10 0 6
-7 10 -16 10 -18 0 -44 -23 -44 -40 0 -15 -46 -60 -62 -60 -8 0 -20 -9 -28
-20 -8 -11 -22 -20 -32 -20 -10 0 -18 -4 -18 -10 0 -5 -9 -10 -20 -10 -11 0
-20 -4 -20 -10 0 -5 -13 -10 -30 -10 -16 0 -30 -4 -30 -10 0 -5 -22 -10 -50
-10 -27 0 -50 -4 -50 -10 0 -6 -53 -10 -140 -10 -87 0 -140 4 -140 10 0 6 -18
10 -40 10 -22 0 -40 5 -40 10 0 6 -13 10 -30 10 -16 0 -30 5 -30 10 0 6 -13
10 -28 10 -16 0 -34 8 -42 20 -25 35 -57 25 -120 -40 -32 -33 -66 -60 -74 -60
-9 0 -16 -4 -16 -10 0 -5 -13 -10 -30 -10 -16 0 -30 -4 -30 -10 0 -5 -22 -10
-50 -10 -27 0 -50 -4 -50 -10 0 -6 -33 -10 -80 -10 -47 0 -80 -4 -80 -10 0 -6
-37 -10 -90 -10 -53 0 -90 -4 -90 -10 0 -6 -37 -10 -90 -10 -53 0 -90 -4 -90
-10 0 -6 -37 -10 -90 -10 -53 0 -90 -4 -90 -10 0 -6 -33 -10 -80 -10 -47 0
-80 -4 -80 -10 0 -6 -37 -10 -90 -10 -53 0 -90 4 -90 10 0 6 -8 10 -18 10 -10
0 -24 9 -32 20 -8 11 -22 20 -32 20 -10 0 -18 5 -18 10 0 6 -8 10 -18 10 -10
0 -24 9 -32 20 -8 11 -22 20 -32 20 -16 0 -18 -10 -18 -80 l0 -80 -70 0 c-40
0 -70 -4 -70 -10 0 -6 -33 -10 -80 -10 -47 0 -80 -4 -80 -10 0 -6 -37 -10 -90
-10 -53 0 -90 -4 -90 -10 0 -6 -33 -10 -80 -10 -47 0 -80 -4 -80 -10 0 -6 -33
-10 -80 -10 -47 0 -80 -4 -80 -10 0 -6 -37 -10 -90 -10 -53 0 -90 -4 -90 -10
0 -6 -33 -10 -80 -10 -47 0 -80 -4 -80 -10 0 -6 -37 -10 -90 -10 -53 0 -90 -4
-90 -10 0 -6 -37 -10 -90 -10 -53 0 -90 -4 -90 -10 0 -6 -33 -10 -80 -10 -47
0 -80 -4 -80 -10 0 -6 -37 -10 -90 -10 -53 0 -90 -4 -90 -10 0 -6 -33 -10 -79
-10 -54 0 -81 -4 -85 -12 -5 -11 -7 -11 -12 0 -3 6 -13 12 -23 12 -9 0 -23 9
-31 20 -8 11 -21 20 -30 20 -9 0 -22 9 -30 20 -8 11 -22 20 -32 20 -15 0 -18
-9 -18 -46 0 -66 -13 -74 -114 -74 -51 0 -86 -4 -86 -10 0 -6 -33 -10 -80 -10
-47 0 -80 -4 -80 -10 0 -6 -33 -10 -78 -10 -66 0 -80 3 -92 20 -8 11 -22 20
-32 20 -10 0 -18 5 -18 10 0 6 -9 10 -20 10 -11 0 -20 5 -20 10 0 6 -8 10 -18
10 -10 0 -24 9 -32 20 -8 11 -22 20 -31 20 -10 0 -19 6 -21 12 -5 15 -38 -13
-38 -32 0 -15 -25 -40 -40 -40 -7 0 -25 -13 -40 -30 -15 -16 -35 -30 -44 -30
-9 0 -16 -4 -16 -10 0 -5 -9 -10 -20 -10 -11 0 -20 -4 -20 -10 0 -5 -13 -10
-30 -10 -16 0 -30 -4 -30 -10 0 -5 -18 -10 -40 -10 -22 0 -40 -4 -40 -10 0 -6
-27 -10 -60 -10 -33 0 -60 -4 -60 -10 0 -6 -37 -10 -90 -10 -53 0 -90 -4 -90
-10 0 -6 -37 -10 -90 -10 -53 0 -90 -4 -90 -10 0 -5 -18 -10 -40 -10 -22 0
-40 5 -40 10 0 6 -8 10 -18 10 -10 0 -24 9 -32 20 -8 11 -21 20 -30 20 -9 0
-22 9 -30 20 -8 11 -21 20 -30 20 -9 0 -22 9 -30 20 -8 11 -21 20 -30 20 -9 0
-22 9 -30 20 -8 11 -22 20 -32 20 -10 0 -18 5 -18 10 0 6 -7 10 -16 10 -9 0
-29 14 -44 30 -15 17 -33 30 -39 30 -17 0 -101 87 -101 105 0 8 -4 15 -10 15
-5 0 -10 9 -10 20 0 11 -4 20 -10 20 -5 0 -10 14 -10 30 0 17 -4 30 -10 30 -5
0 -10 23 -10 50 0 28 -4 50 -10 50 -6 0 -10 113 -10 320 l0 320 50 0 c28 0 50
5 50 10 0 6 -4 10 -10 10 -5 0 -10 8 -10 18 0 10 -9 24 -20 32 -12 8 -20 26
-20 42 0 15 -4 28 -10 28 -5 0 -10 23 -10 50 0 28 -4 50 -10 50 -7 0 -10 143
-10 410 0 267 3 410 10 410 6 0 10 14 10 30 0 17 5 30 10 30 6 0 10 13 10 28
0 16 8 34 20 42 11 8 20 20 20 28 0 17 65 82 82 82 8 0 20 9 28 20 8 11 22 20
32 20 10 0 18 5 18 10 0 6 9 10 20 10 11 0 20 5 20 10 0 6 9 10 20 10 11 0 20
5 20 10 0 6 14 10 30 10 17 0 30 5 30 10 0 6 14 10 30 10 17 0 30 5 30 10 0 6
23 10 50 10 28 0 50 5 50 10 0 6 47 10 120 10 73 0 120 4 120 10 0 6 47 10
120 10 73 0 120 4 120 10 0 6 40 10 100 10 60 0 100 4 100 10 0 6 40 10 100
10 60 0 100 4 100 10 0 6 43 10 110 10 67 0 110 4 110 10 0 6 37 10 90 10 53
0 90 4 90 10 0 6 37 10 90 10 75 0 90 3 90 16 0 19 -24 44 -42 44 -8 0 -20 9
-28 20 -8 11 -21 20 -28 20 -8 0 -27 14 -42 30 -15 17 -34 30 -42 30 -7 0 -20
9 -28 20 -8 11 -21 20 -30 20 -9 0 -22 9 -30 20 -8 11 -21 20 -28 20 -8 0 -27
14 -42 30 -15 17 -35 30 -44 30 -9 0 -16 5 -16 10 0 6 -9 10 -20 10 -11 0 -20
5 -20 10 0 6 -9 10 -20 10 -11 0 -20 5 -20 10 0 6 -4 10 -10 10 -5 0 -10 -25
-10 -56 0 -56 14 -84 42 -84 8 0 20 -9 28 -20 8 -11 22 -20 32 -20 10 0 18 -4
18 -10 0 -5 7 -10 15 -10 14 0 85 -62 85 -75 0 -3 -45 -5 -100 -5 -60 0 -100
-4 -100 -10 0 -6 -43 -10 -110 -10 -67 0 -110 -4 -110 -10 0 -6 -43 -10 -110
-10 -67 0 -110 -4 -110 -10 0 -6 -40 -10 -100 -10 -60 0 -100 -4 -100 -10 0
-6 -43 -10 -110 -10 -67 0 -110 -4 -110 -10 0 -6 -33 -10 -80 -10 -47 0 -80
-4 -80 -10 0 -5 -18 -10 -40 -10 -22 0 -40 -4 -40 -10 0 -5 -18 -10 -40 -10
-22 0 -40 -4 -40 -10 0 -5 -13 -10 -30 -10 -16 0 -30 -4 -30 -10 0 -5 -13 -10
-30 -10 -16 0 -30 -4 -30 -10 0 -5 -9 -10 -20 -10 -11 0 -20 -4 -20 -10 0 -5
-7 -10 -16 -10 -9 0 -29 -13 -44 -30 -15 -16 -33 -30 -40 -30 -15 0 -40 -25
-40 -40 0 -7 -13 -25 -30 -40 -16 -15 -30 -33 -30 -40 0 -20 -27 -40 -54 -40
l-26 0 0 -520 c0 -340 3 -520 10 -520 6 0 10 -18 10 -40 0 -22 -4 -40 -10 -40
-6 0 -10 -140 -10 -400 0 -260 4 -400 10 -400 6 0 10 -18 10 -40 0 -22 5 -40
10 -40 6 0 10 -13 10 -30 0 -16 5 -30 10 -30 6 0 10 -8 10 -18 0 -10 9 -24 20
-32 11 -8 20 -21 20 -30 0 -9 9 -22 20 -30 11 -8 20 -20 20 -28 0 -17 25 -42
42 -42 8 0 20 -9 28 -20 8 -11 21 -20 30 -20 9 0 22 -9 30 -20 8 -11 21 -20
30 -20 9 0 22 -9 30 -20 8 -11 21 -20 30 -20 9 0 22 -9 30 -20 8 -11 21 -20
30 -20 9 0 22 -9 30 -20 8 -11 21 -20 28 -20 8 0 27 -13 42 -30 15 -16 34 -30
42 -30 7 0 20 -9 28 -20 8 -11 22 -20 31 -20 10 0 20 -6 23 -12 5 -10 7 -10
12 0 4 8 35 12 105 12 59 0 99 4 99 10 0 6 37 10 90 10 53 0 90 4 90 10 0 6
30 10 70 10 40 0 70 4 70 10 0 6 23 10 50 10 28 0 50 5 50 10 0 6 14 10 30 10
17 0 30 5 30 10 0 6 9 10 20 10 11 0 20 5 20 10 0 6 13 10 28 10 16 0 34 8 42
20 8 11 21 20 30 20 9 0 22 9 30 20 8 11 21 20 30 20 9 0 22 9 30 20 15 21 50
28 50 10 0 -5 8 -10 18 -10 10 0 24 -9 32 -20 8 -11 21 -20 30 -20 9 0 22 -9
30 -20 8 -11 22 -20 32 -20 10 0 18 -4 18 -10 0 -5 14 -10 30 -10 17 0 30 5
30 10 0 6 37 10 90 10 53 0 90 4 90 10 0 6 37 10 90 10 53 0 90 4 90 10 0 6
29 10 66 10 73 0 94 12 94 54 0 33 6 33 40 -4 21 -23 37 -30 64 -30 20 0 36 5
36 10 0 6 33 10 80 10 47 0 80 4 80 10 0 6 37 10 90 10 53 0 90 4 90 10 0 6
37 10 90 10 53 0 90 4 90 10 0 6 43 10 110 10 67 0 110 4 110 10 0 6 40 10
100 10 60 0 100 4 100 10 0 6 33 10 80 10 47 0 80 4 80 10 0 6 37 10 90 10 53
0 90 4 90 10 0 6 33 10 80 10 47 0 80 4 80 10 0 6 33 10 80 10 47 0 80 4 80
10 0 6 37 10 90 10 53 0 90 4 90 10 0 6 33 10 80 10 47 0 80 4 80 10 0 6 23
10 50 10 l50 0 0 50 c0 41 3 50 18 50 10 0 24 -9 32 -20 8 -11 22 -20 32 -20
10 0 18 -4 18 -10 0 -5 9 -10 20 -10 11 0 20 -4 20 -10 0 -5 18 -10 40 -10 22
0 40 5 40 10 0 6 37 10 90 10 53 0 90 4 90 10 0 6 37 10 90 10 53 0 90 4 90
10 0 6 37 10 90 10 53 0 90 4 90 10 0 6 40 10 100 10 60 0 100 4 100 10 0 6
33 10 80 10 47 0 80 4 80 10 0 6 27 10 60 10 33 0 60 4 60 10 0 6 14 10 30 10
17 0 30 5 30 10 0 6 14 10 30 10 17 0 30 5 30 10 0 6 7 10 16 10 9 0 29 14 44
30 15 17 34 30 40 30 7 0 22 10 33 23 13 15 21 18 24 10 3 -7 18 -13 34 -13
16 0 29 -4 29 -10 0 -5 14 -10 30 -10 17 0 30 -4 30 -10 0 -5 18 -10 40 -10
22 0 40 -4 40 -10 0 -6 63 -10 170 -10 107 0 170 4 170 10 0 6 23 10 50 10 28
0 50 5 50 10 0 6 18 10 40 10 22 0 40 5 40 10 0 6 9 10 20 10 11 0 20 5 20 10
0 6 9 10 20 10 11 0 20 5 20 10 0 6 7 10 16 10 8 0 34 19 56 42 25 26 43 38
45 31 3 -7 18 -13 34 -13 16 0 29 -4 29 -10 0 -5 14 -10 30 -10 17 0 30 -4 30
-10 0 -5 23 -10 50 -10 28 0 50 -4 50 -10 0 -6 67 -10 180 -10 113 0 180 4
180 10 0 6 23 10 50 10 28 0 50 5 50 10 0 6 14 10 30 10 17 0 30 5 30 10 0 6
14 10 30 10 17 0 30 5 30 10 0 6 9 10 20 10 11 0 20 5 20 10 0 6 9 10 20 10
11 0 20 5 20 10 0 6 9 10 20 10 11 0 20 5 20 10 0 6 7 10 15 10 19 0 145 124
145 143 0 7 9 19 20 27 11 8 20 22 20 32 0 10 5 18 10 18 6 0 10 9 10 20 0 11
5 20 10 20 6 0 10 14 10 30 0 17 5 30 10 30 6 0 10 30 10 70 0 40 4 70 10 70
6 0 10 70 10 190 0 120 -4 190 -10 190 -6 0 -10 53 -10 140 0 87 -4 140 -10
140 -5 0 -10 18 -10 40 0 22 -4 40 -10 40 -5 0 -10 9 -10 20 0 11 -4 20 -10
20 -5 0 -10 9 -10 20 0 13 7 20 20 20 11 0 20 -4 20 -10 0 -5 5 -10 10 -10 7
0 10 172 10 495 l0 496 -25 24 c-13 14 -31 25 -40 25 -8 0 -15 5 -15 10 0 6
-7 10 -16 10 -9 0 -29 14 -44 30 -15 17 -34 30 -42 30 -7 0 -20 9 -28 20 -8
11 -21 20 -30 20 -9 0 -22 9 -30 20 -8 11 -21 20 -28 20 -8 0 -27 14 -42 30
-15 17 -34 30 -42 30 -7 0 -20 9 -28 20 -8 11 -21 20 -30 20 -9 0 -22 9 -30
20 -8 11 -21 20 -28 20 -8 0 -27 14 -42 30 -15 17 -34 30 -42 30 -7 0 -20 9
-28 20 -12 16 -26 20 -72 20 -32 0 -58 -4 -58 -10 0 -6 -40 -10 -100 -10 -60
0 -100 -4 -100 -10 0 -6 -40 -10 -100 -10 -60 0 -100 -4 -100 -10 0 -6 -40
-10 -100 -10 -60 0 -100 -4 -100 -10 0 -6 -37 -10 -90 -10 -53 0 -90 -4 -90
-10 0 -6 -40 -10 -100 -10 -60 0 -100 -4 -100 -10 0 -5 -18 -10 -40 -10 l-40
0 0 210 c0 133 -4 210 -10 210 -7 0 -10 227 -10 660 l0 660 60 0 c33 0 60 4
60 10 0 6 40 10 100 10 60 0 100 4 100 10 0 6 40 10 100 10 60 0 100 4 100 10
0 6 18 10 40 10 l40 0 0 525 0 526 -25 24 c-13 14 -30 25 -37 25 -8 0 -20 9
-28 20 -8 11 -21 20 -28 20 -8 0 -27 14 -42 30 -15 17 -33 30 -40 30 -7 0 -25
14 -40 30 -15 17 -35 30 -44 30 -9 0 -16 5 -16 10 0 6 -9 10 -20 10 -11 0 -20
5 -20 10 0 6 -7 10 -16 10 -9 0 -29 14 -44 30 -15 17 -34 30 -42 30 -7 0 -20
9 -28 20 -8 11 -21 20 -30 20 -9 0 -22 9 -30 20 -8 11 -21 20 -30 20 -9 0 -22
9 -30 20 -24 33 -30 23 -30 -50z"/>
</g>
</svg>
